. 
  
http://www.torrentday.com/        :     The Hottest Private Tracker On The Net!!!


               www . TorrentDay . Com 
(((((((((((((= Enjoy No RAR releases =))))))))))))))))))))


...................................NFO:....................................

.[img]http://leetleech.org/images/18588870136005350946.png[/img]

[b]After Life 2010 480p BRRip XviD AC3-LEGi0N

[img]http://leetleech.org/images/48874973695367351744.png[/img]
[color=red]General[/color]
Format: AVI
File size: 1.45 GiB
Duration: 1h 42mn
Overall bit rate: 2 021 Kbp
IMDb Rating: 6.3/10   2,039 votes
Genre: Drama | Mystery | Thriller 
Release Date: 26 August 2010
IMDb Link: http://www.imdb.com/title/tt0838247/
Source: 720p BluRay x264-DEPRAViTY

[color=red]Video[/color]
Format: MPEG-4 Visual
Format profile: Streaming Video@L1
Format settings, BVOP: Yes
Format settings, QPel: No
Format settings, GMC: No warppoints
Format settings, Matrix: Default (H.263)
Muxing mode: Packed bitstream
Codec ID: XVID
Bit rate: 1 564 Kbps
Width: 720 pixels
Height: 304 pixels
Display aspect ratio: 2.35
Frame rate: 23.976 fps
Resolution: 24 bits
Colorimetry: 4:2:0
Scan type: Progressive
Bits/(Pixel*Frame): 0.298
Stream size: 1.12 GiB (77%)

[color=red]Audio[/color]
Format: AC-3
Bit rate: 448 Kbps
Channel(s): 6 channels
Sampling rate: 48.0 KHz
Stream size: 330 MiB (22%)

[img]http://leetleech.org/images/89524873606771859129.png[/img]
A young woman caught between life and death... and a funeral 
director who appears to have the gift of transitioning the 
dead, but might just be intent on burying her alive.

[color=red]Tagline:[/color]
Life is the symptom. Death is the cure.

[img]http://leetleech.org/images/84434050717770922575.png[/img]
Christina Ricci	 ... 	Anna Taylor
Liam Neeson	... 	Eliot Deacon
Justin Long	... 	Paul Coleman
Chandler Canterbury	... 	Jack
Celia Weston	... 	Beatrice Taylor
Luz Alexandra Ramos	... 	Diane
Josh Charles	... 	Tom Peterson
Rosemary Murphy	... 	Mrs. Whitehall
Malachy McCourt	... 	Father Graham
Shuler Hensley	... 	Vincent Miller
Alice Drummond	... 	Mrs. Hutton
Sam Kressner	... 	Acne Kid
Doan Ly	... 	Teacher #1
Jack Rovello	... 	Tall Kid
Prudence Wright Holmes	... 	Old Woman #1

[color=red]GREETZ[/color]
Noir | xXTHORNXx | bigimac | LUSi |

kempas | KaN1vE | mike160 | skillz |

Lungbuster | Sheikh | dillon1369 |

FLAWL3SS | AND ALL P2P!

[color=red]SAMPLE INCLUDED![/color][/b]

[img]http://leetleech.org/images/95521316153253938506.png[/img]
[img]http://leetleech.org/images/57240452832289286842.png[/img]
[img]http://leetleech.org/images/05404846200421539543.png[/img]
[img]http://leetleech.org/images/69524295933553589790.png[/img]
[img]http://leetleech.org/images/43783325503869817785.png[/img]
[img]http://leetleech.org/images/35947230869818738562.png[/img]
[img]http://leetleech.org/images/12755021538703799215.png[/img]